<svg preserveAspectRatio="none" width="100%" height="100%" overflow="visible" style="display: block;" viewBox="0 0 14 13" fill="none" xmlns="http://www.w3.org/2000/svg">
<g id="Icon">
<path d="M7 0C7.26972 0 7.48837 0.203034 7.48837 0.453488V1.05814C7.48837 1.30859 7.26972 1.51163 7 1.51163C6.73028 1.51163 6.51163 1.30859 6.51163 1.05814V0.453488C6.51163 0.203034 6.73028 0 7 0Z" fill="var(--fill-0, #F18541)"/>
<path d="M7 3.02326C4.93214 3.02326 3.25581 4.57985 3.25581 6.5C3.25581 8.42015 4.93214 9.97674 7 9.97674C9.06786 9.97674 10.7442 8.42015 10.7442 6.5C10.7442 4.57985 9.06786 3.02326 7 3.02326Z" fill="var(--fill-0, #F18541)"/>
<path d="M2.74092 1.90382C2.5502 1.72672 2.24098 1.72672 2.05026 1.90382C1.85954 2.08092 1.85954 2.36805 2.05026 2.54515L2.5107 2.9727C2.70142 3.1498 3.01064 3.1498 3.20137 2.9727C3.39209 2.7956 3.39209 2.50847 3.20137 2.33137L2.74092 1.90382Z" fill="var(--fill-0, #F18541)"/>
<path d="M14 6.5C14 6.75045 13.7813 6.95349 13.5116 6.95349H12.8605C12.5907 6.95349 12.3721 6.75045 12.3721 6.5C12.3721 6.24954 12.5907 6.04651 12.8605 6.04651H13.5116C13.7813 6.04651 14 6.24955 14 6.5Z" fill="var(--fill-0, #F18541)"/>
<path d="M11.9497 2.54514C12.1405 2.36805 12.1405 2.08091 11.9497 1.90381C11.759 1.72672 11.4498 1.72672 11.2591 1.90381L10.7986 2.33137C10.6079 2.50847 10.6079 2.7956 10.7986 2.9727C10.9893 3.14979 11.2986 3.14979 11.4893 2.9727L11.9497 2.54514Z" fill="var(--fill-0, #F18541)"/>
<path d="M7 11.4884C7.26972 11.4884 7.48837 11.6914 7.48837 11.9419V12.5465C7.48837 12.797 7.26972 13 7 13C6.73028 13 6.51163 12.797 6.51163 12.5465V11.9419C6.51163 11.6914 6.73028 11.4884 7 11.4884Z" fill="var(--fill-0, #F18541)"/>
<path d="M11.4893 10.0273C11.2986 9.85021 10.9894 9.85021 10.7987 10.0273C10.608 10.2044 10.608 10.4915 10.7987 10.6686L11.2591 11.0962C11.4498 11.2733 11.7591 11.2733 11.9498 11.0962C12.1405 10.9191 12.1405 10.632 11.9498 10.4549L11.4893 10.0273Z" fill="var(--fill-0, #F18541)"/>
<path d="M1.62791 6.5C1.62791 6.75045 1.40926 6.95349 1.13953 6.95349H0.488372C0.218652 6.95349 0 6.75045 0 6.5C0 6.24954 0.218652 6.04651 0.488372 6.04651H1.13953C1.40926 6.04651 1.62791 6.24955 1.62791 6.5Z" fill="var(--fill-0, #F18541)"/>
<path d="M3.20132 10.6686C3.39204 10.4915 3.39204 10.2044 3.20132 10.0273C3.0106 9.8502 2.70138 9.8502 2.51066 10.0273L2.05022 10.4549C1.8595 10.632 1.8595 10.9191 2.05022 11.0962C2.24094 11.2733 2.55016 11.2733 2.74088 11.0962L3.20132 10.6686Z" fill="var(--fill-0, #F18541)"/>
</g>
</svg>
