<svg preserveAspectRatio="none" width="100%" height="100%" overflow="visible" style="display: block;" viewBox="0 0 16.5482 16.5952" fill="none" xmlns="http://www.w3.org/2000/svg">
<g id="Group">
<path id="Vector" opacity="0" d="M16.5482 0H0V16.5952H16.5482V0Z" fill="var(--fill-0, black)"/>
<path id="Vector_2" d="M6.59558 15.2969C6.94497 15.2969 7.22123 15.1413 7.41624 14.8382L15.0947 2.64854C15.2409 2.41098 15.2979 2.23076 15.2979 2.04234C15.2979 1.59179 15.0053 1.29688 14.5584 1.29688C14.2334 1.29688 14.0546 1.40337 13.8597 1.71466L6.56307 13.4373L2.77666 8.44025C2.57353 8.15353 2.3704 8.03884 2.07789 8.03884C1.61474 8.03884 1.29785 8.35832 1.29785 8.80888C1.29785 8.9973 1.37911 9.21029 1.53349 9.40686L5.75054 14.8217C5.9943 15.1413 6.24619 15.2969 6.59558 15.2969Z" fill="var(--fill-0, #42307D)"/>
</g>
</svg>
