<svg preserveAspectRatio="none" width="100%" height="100%" overflow="visible" style="display: block;" viewBox="0 0 16.101 15.7438" fill="none" xmlns="http://www.w3.org/2000/svg">
<g id="Group">
<path id="Vector" opacity="0" d="M16.101 0H0V15.7438H16.101V0Z" fill="var(--fill-0, black)"/>
<path id="Vector_2" d="M1.10052 14.6436C1.40952 14.9438 1.92158 14.9438 2.22175 14.6436L7.87206 8.99238L13.5223 14.6436C13.8226 14.9438 14.3434 14.9526 14.6436 14.6436C14.9438 14.3345 14.9438 13.8312 14.6436 13.531L8.99329 7.87097L14.6436 2.21976C14.9438 1.91954 14.9526 1.4074 14.6436 1.10718C14.3346 0.798131 13.8226 0.798131 13.5223 1.10718L7.87206 6.75839L2.22175 1.10718C1.92158 0.798131 1.40069 0.789301 1.10052 1.10718C0.80035 1.41623 0.80035 1.91954 1.10052 2.21976L6.75083 7.87097L1.10052 13.531C0.80035 13.8312 0.791521 14.3434 1.10052 14.6436Z" fill="var(--fill-0, #42307D)"/>
</g>
</svg>
