<svg preserveAspectRatio="none" width="100%" height="100%" overflow="visible" style="display: block;" viewBox="0 0 2.06553 9.29488" fill="none" xmlns="http://www.w3.org/2000/svg">
<g id="Icon">
<path d="M1.03276 5.16382C1.31795 5.16382 1.54915 4.93263 1.54915 4.64744C1.54915 4.36225 1.31795 4.13106 1.03276 4.13106C0.747574 4.13106 0.516382 4.36225 0.516382 4.64744C0.516382 4.93263 0.747574 5.16382 1.03276 5.16382Z" stroke="var(--stroke-0, #98A2B3)" stroke-width="1.03276" stroke-linecap="round" stroke-linejoin="round"/>
<path d="M1.03276 1.54915C1.31795 1.54915 1.54915 1.31795 1.54915 1.03276C1.54915 0.747574 1.31795 0.516382 1.03276 0.516382C0.747574 0.516382 0.516382 0.747574 0.516382 1.03276C0.516382 1.31795 0.747574 1.54915 1.03276 1.54915Z" stroke="var(--stroke-0, #98A2B3)" stroke-width="1.03276" stroke-linecap="round" stroke-linejoin="round"/>
<path d="M1.03276 8.7785C1.31795 8.7785 1.54915 8.5473 1.54915 8.26211C1.54915 7.97692 1.31795 7.74573 1.03276 7.74573C0.747574 7.74573 0.516382 7.97692 0.516382 8.26211C0.516382 8.5473 0.747574 8.7785 1.03276 8.7785Z" stroke="var(--stroke-0, #98A2B3)" stroke-width="1.03276" stroke-linecap="round" stroke-linejoin="round"/>
</g>
</svg>
