<svg preserveAspectRatio="none" width="100%" height="100%" overflow="visible" style="display: block;" viewBox="0 0 20.1075 12.4493" fill="none" xmlns="http://www.w3.org/2000/svg">
<g id="Group">
<path id="Vector" opacity="0" d="M20.1073 0H0.000228936V12.4489H20.1073V0Z" fill="var(--fill-0, black)"/>
<path id="Vector_2" d="M9.92286 12.4493C15.788 12.4493 19.8385 7.70932 19.8385 6.22851C19.8385 4.74044 15.7808 0.00766201 9.92286 0.00766201C4.13756 0.00766201 0 4.74044 0 6.22851C0 7.70932 4.13029 12.4493 9.92286 12.4493ZM9.92286 11.3025C5.13928 11.3025 1.2703 7.25201 1.2703 6.22851C1.2703 5.36471 5.13928 1.15456 9.92286 1.15456C14.6847 1.15456 18.5682 5.36471 18.5682 6.22851C18.5682 7.25201 14.6847 11.3025 9.92286 11.3025ZM9.92286 10.2862C12.1732 10.2862 13.9951 8.46423 13.9951 6.214C13.9951 3.96374 12.1732 2.14177 9.92286 2.14177C7.67265 2.14177 5.84339 3.96374 5.84339 6.214C5.84339 8.46423 7.67265 10.2862 9.92286 10.2862ZM9.92286 7.57137C9.17524 7.57137 8.57272 6.96891 8.57272 6.22125C8.57272 5.47359 9.17524 4.8711 9.92286 4.8711C10.6706 4.8711 11.273 5.47359 11.273 6.22125C11.273 6.96891 10.6706 7.57137 9.92286 7.57137Z" fill="var(--fill-0, #42307D)"/>
</g>
</svg>
