<svg preserveAspectRatio="none" width="100%" height="100%" overflow="visible" style="display: block;" viewBox="0 0 21.4413 18.8823" fill="none" xmlns="http://www.w3.org/2000/svg">
<path id="&#244;&#128;&#142;&#158;" d="M8.11679 17.9575V12.1572C8.11679 11.9537 8.17965 11.7891 8.30535 11.6634C8.43105 11.5377 8.59865 11.4748 8.80816 11.4748H12.6421C12.8516 11.4748 13.0162 11.5377 13.1359 11.6634C13.2616 11.7891 13.3245 11.9537 13.3245 12.1572V17.9575H8.11679ZM0.772173 9.58931C0.532739 9.58931 0.344186 9.51748 0.206511 9.37382C0.0688371 9.22417 0 9.05657 0 8.87101C0 8.63756 0.0957734 8.44302 0.28732 8.28739L9.64318 0.43098C9.97839 0.14366 10.3375 0 10.7206 0C11.1037 0 11.4629 0.14366 11.7981 0.43098L21.1539 8.28739C21.3455 8.44302 21.4413 8.63756 21.4413 8.87101C21.4413 9.05657 21.3724 9.22417 21.2348 9.37382C21.1031 9.51748 20.9145 9.58931 20.6691 9.58931C20.5434 9.58931 20.4267 9.55938 20.3189 9.49952C20.2172 9.43966 20.1214 9.37382 20.0316 9.30199L11.0349 1.75086C10.9391 1.66706 10.8344 1.62515 10.7206 1.62515C10.6069 1.62515 10.5022 1.66706 10.4064 1.75086L1.41864 9.30199C1.32287 9.37382 1.22111 9.43966 1.11337 9.49952C1.01161 9.55938 0.897875 9.58931 0.772173 9.58931ZM16.5658 4.82159V2.67567C16.5658 2.47814 16.6257 2.3225 16.7454 2.20877C16.8651 2.08906 17.0207 2.0292 17.2123 2.0292H18.173C18.3705 2.0292 18.5262 2.08906 18.6399 2.20877C18.7596 2.3225 18.8195 2.47814 18.8195 2.67567V6.72509L16.5658 4.82159ZM4.65099 18.8823C4.01051 18.8823 3.51069 18.7087 3.15154 18.3616C2.79838 18.0204 2.6218 17.5325 2.6218 16.898V6.94956L4.06738 5.97985V16.5389C4.06738 16.8322 4.1422 17.0536 4.29184 17.2033C4.44748 17.3589 4.66895 17.4367 4.95627 17.4367H16.494C16.7813 17.4367 16.9998 17.3589 17.1494 17.2033C17.2991 17.0536 17.3739 16.8322 17.3739 16.5389V5.97087L18.8195 6.94956V16.898C18.8195 17.5265 18.6429 18.0144 18.2897 18.3616C17.9366 18.7087 17.4397 18.8823 16.7993 18.8823H4.65099Z" fill="var(--fill-0, #667085)"/>
</svg>
