<svg preserveAspectRatio="none" width="100%" height="100%" overflow="visible" style="display: block;" viewBox="0 0 21 19" fill="none" xmlns="http://www.w3.org/2000/svg">
<g id="Vector">
<path fill-rule="evenodd" clip-rule="evenodd" d="M1.29852 7.84795V13.4665C1.29852 13.8919 1.40069 14.2096 1.60501 14.4195C1.81471 14.6295 2.11581 14.7344 2.50833 14.7344H11.4851V16.0604H2.4922C1.66415 16.0604 1.04043 15.8504 0.621033 15.4305C0.207011 15.0162 0 14.3836 0 13.5328V5.46947C0 4.61866 0.207011 3.98608 0.621033 3.57173C1.04043 3.15185 1.66415 2.94191 2.4922 2.94191H5.24249V2.28723C5.24249 1.50825 5.44681 0.933677 5.85545 0.563521C6.2641 0.18784 6.81255 0 7.50079 0H11.1625C11.8937 0 12.4529 0.18784 12.8401 0.563521C13.2272 0.933677 13.4208 1.50825 13.4208 2.28723V2.94191H16.1791C17.0125 2.94191 17.6363 3.15185 18.0503 3.57173C18.4643 3.98608 18.6713 4.61866 18.6713 5.46947V9.50113H17.3728V7.84795C16.2233 8.23637 15.0134 8.53191 13.7434 8.73458C13.0045 8.85249 12.2517 8.93971 11.4851 8.99624V9.67102C11.4851 10.2732 11.1867 10.5743 10.5898 10.5743H8.0815C7.48466 10.5743 7.18624 10.2732 7.18624 9.67102V8.99641C6.42033 8.93988 5.66757 8.8526 4.92794 8.73458C3.65787 8.53191 2.44807 8.23637 1.29852 7.84795ZM17.3728 6.45996V5.53577C17.3728 5.11036 17.2679 4.79269 17.0582 4.58275C16.8539 4.37281 16.5555 4.26784 16.163 4.26784H2.50833C2.11581 4.26784 1.81471 4.37281 1.60501 4.58275C1.40069 4.79269 1.29852 5.11036 1.29852 5.53577V6.45337C2.42125 6.87894 3.61492 7.20289 4.87955 7.42522C6.29905 7.66831 7.78308 7.78985 9.33163 7.78985C10.8856 7.78985 12.3696 7.66831 13.7837 7.42522C15.0532 7.20289 16.2495 6.88113 17.3728 6.45996ZM12.1706 2.94191V2.19608C12.1706 1.88117 12.0846 1.63808 11.9125 1.46681C11.7405 1.29555 11.4985 1.20991 11.1867 1.20991H7.48466C7.16742 1.20991 6.92277 1.29555 6.75071 1.46681C6.57865 1.63808 6.49262 1.88117 6.49262 2.19608V2.94191H12.1706Z" fill="var(--fill-0, #667085)"/>
<path fill-rule="evenodd" clip-rule="evenodd" d="M16.4673 19C16.3436 19 16.2334 18.9613 16.1366 18.884C16.0452 18.8122 15.9887 18.7127 15.9672 18.5856L15.7817 17.7735C15.7279 17.7569 15.6715 17.7376 15.6123 17.7155C15.5586 17.6934 15.4967 17.663 15.4268 17.6243L14.7251 18.0636C14.6176 18.1299 14.5074 18.1602 14.3945 18.1547C14.2816 18.1492 14.1794 18.0967 14.088 17.9973L13.6202 17.5C13.5342 17.4116 13.4858 17.3094 13.475 17.1934C13.4696 17.0774 13.4992 16.9614 13.5637 16.8454L13.9751 16.1244C13.9536 16.0636 13.9294 16.0056 13.9025 15.9504C13.881 15.9006 13.8595 15.8482 13.838 15.7929L13.0395 15.594C12.9158 15.5609 12.8163 15.4973 12.7411 15.4034C12.6712 15.315 12.6362 15.2045 12.6362 15.0719V14.3675C12.6362 14.2515 12.6712 14.1493 12.7411 14.0609C12.8163 13.967 12.9158 13.9035 13.0395 13.8703L13.8299 13.6714C13.8514 13.6106 13.8729 13.5526 13.8944 13.4974C13.9213 13.4366 13.9455 13.3814 13.967 13.3316L13.5234 12.5941C13.4589 12.4891 13.4347 12.3786 13.4508 12.2626C13.4723 12.1411 13.5261 12.0361 13.6121 11.9477L14.088 11.4588C14.1794 11.3648 14.2816 11.3096 14.3945 11.293C14.5128 11.2764 14.6176 11.3013 14.709 11.3676L15.4107 11.8234C15.4698 11.7847 15.529 11.7571 15.5881 11.7405C15.6473 11.7184 15.7118 11.6936 15.7817 11.6659L15.9672 10.8455C15.9887 10.7295 16.0452 10.6328 16.1366 10.5555C16.2334 10.4726 16.3436 10.4312 16.4673 10.4312H17.1609C17.2846 10.4312 17.3921 10.4698 17.4835 10.5472C17.5749 10.6245 17.6341 10.724 17.6609 10.8455L17.8545 11.6742C17.9083 11.6963 17.9647 11.7184 18.0239 11.7405C18.083 11.7571 18.1449 11.7847 18.2094 11.8234L18.9191 11.3676C19.0159 11.3013 19.1208 11.2764 19.2337 11.293C19.3466 11.3096 19.4488 11.3648 19.5402 11.4588L20.0322 11.9477C20.1182 12.0306 20.1666 12.1328 20.1773 12.2543C20.1881 12.3759 20.1612 12.4891 20.0967 12.5941L19.6611 13.3316C19.6827 13.3814 19.7042 13.4338 19.7257 13.4891C19.7526 13.5388 19.7794 13.5996 19.8063 13.6714L20.5887 13.8703C20.7123 13.9035 20.8118 13.9642 20.8871 14.0526C20.9624 14.141 21 14.246 21 14.3675V15.0719C21 15.2045 20.9624 15.315 20.8871 15.4034C20.8172 15.4973 20.7177 15.5609 20.5887 15.594L19.7902 15.7929C19.7741 15.8482 19.7552 15.9006 19.7337 15.9504C19.7122 16.0056 19.6853 16.0636 19.6531 16.1244L20.0644 16.8371C20.1343 16.9586 20.1639 17.0746 20.1531 17.1851C20.1478 17.3012 20.1021 17.4061 20.016 17.5L19.5402 17.9973C19.4434 18.0967 19.3385 18.1492 19.2256 18.1547C19.1181 18.1602 19.0105 18.1299 18.903 18.0636L18.2094 17.6243C18.0965 17.6851 17.9782 17.7348 17.8545 17.7735L17.6609 18.5856C17.6341 18.7182 17.5749 18.8204 17.4835 18.8923C17.3921 18.9641 17.2846 19 17.1609 19H16.4673ZM17.7577 15.6935C17.4943 15.9697 17.1797 16.1078 16.8141 16.1078C16.4431 16.1078 16.1258 15.9697 15.8624 15.6935C15.5989 15.4227 15.4672 15.0996 15.4672 14.7239C15.4672 14.3427 15.5989 14.0167 15.8624 13.746C16.1258 13.4753 16.4431 13.3399 16.8141 13.3399C17.1797 13.3399 17.4943 13.4753 17.7577 13.746C18.0212 14.0167 18.1529 14.3427 18.1529 14.7239C18.1529 15.0996 18.0212 15.4227 17.7577 15.6935Z" fill="var(--fill-0, #667085)"/>
</g>
</svg>
