<svg preserveAspectRatio="none" width="100%" height="100%" overflow="visible" style="display: block;" viewBox="0 0 23.6475 23.3041" fill="none" xmlns="http://www.w3.org/2000/svg">
<g id="Group">
<path id="Vector" opacity="0" d="M23.6475 0H0V23.3041H23.6475V0Z" fill="var(--fill-0, black)"/>
<path id="Vector_2" d="M15.5591 4.88935H6.08643C5.10986 4.88935 4.56299 5.41669 4.56299 6.43232V17.5163C4.56299 18.5319 5.10986 19.0495 6.08643 19.0495H17.2095C18.186 19.0495 18.7231 18.5319 18.7231 17.5163V8.12957L20.2954 6.55445V17.5944C20.2954 19.6159 19.27 20.6218 17.229 20.6218H6.05713C4.02588 20.6218 2.99072 19.6159 2.99072 17.5944V6.34443C2.99072 4.33271 4.02588 3.31708 6.05713 3.31708H17.1313L15.5591 4.88935Z" fill="var(--fill-0, #7F56D9)"/>
<path id="Vector_3" d="M9.61182 14.2936L11.5161 13.4636L20.6372 4.35224L19.2993 3.03388L10.188 12.1452L9.30908 13.9811C9.23096 14.1472 9.42627 14.3718 9.61182 14.2936ZM21.3599 3.63935L22.063 2.91669C22.395 2.56513 22.395 2.09638 22.063 1.77412L21.8384 1.53974C21.5356 1.23701 21.0571 1.27607 20.7349 1.58857L20.022 2.29169L21.3599 3.63935Z" fill="var(--fill-0, #7F56D9)"/>
</g>
</svg>
