<svg preserveAspectRatio="none" width="100%" height="100%" overflow="visible" style="display: block;" viewBox="0 0 23.6475 23.3041" fill="none" xmlns="http://www.w3.org/2000/svg">
<g id="Frame" clip-path="url(#clip0_5627_12969)">
<path id="Vector" d="M4.86207 11.0744L2.948 12.9885C1.24879 14.6877 1.23902 17.09 2.948 18.8088C4.65699 20.508 7.05937 20.4983 8.75857 18.799L11.8446 15.7224C11.797 16.0054 11.7762 16.2965 11.7762 16.592C11.7762 17.0325 11.8219 17.4628 11.9098 17.878L9.79367 20.0002C7.45977 22.3342 4.13941 22.3537 1.76636 19.9807C-0.596922 17.6174 -0.577392 14.2971 1.7566 11.9533L4.62769 9.09204C4.52027 9.72681 4.58863 10.4592 4.86207 11.0744ZM18.9441 2.77368C21.1842 5.02303 21.2834 8.11468 19.2962 10.4254C18.9011 10.3445 18.4925 10.3029 18.075 10.3029C17.7597 10.3029 17.4495 10.3266 17.1485 10.3798L17.7625 9.76587C19.4519 8.07642 19.4715 5.66431 17.7625 3.95532C16.0535 2.24634 13.6512 2.2561 11.9422 3.95532L8.75857 7.13892C7.06907 8.82837 7.05937 11.2502 8.76827 12.9592C9.40307 13.594 10.243 13.9846 11.532 14.0822L10.2332 15.4006C8.98317 15.1857 8.20187 14.7463 7.58667 14.1311C5.21363 11.7678 5.23316 8.44751 7.57687 6.10376L10.907 2.76392C13.2508 0.420167 16.5711 0.400636 18.9441 2.77368ZM13.1238 8.62329C13.9315 9.42762 14.462 10.3428 14.7112 11.2934C14.144 11.6484 13.6401 12.0952 13.2162 12.6096C13.1926 11.6136 12.7682 10.6211 11.9422 9.79516C11.3074 9.1604 10.4676 8.77954 9.17847 8.67212L10.4773 7.35376C11.7273 7.5686 12.5086 8.00806 13.1238 8.62329Z" fill="var(--fill-0, #7F56D9)"/>
<path id="Vector_2" d="M23.0359 16.5918C23.0359 19.3066 20.7605 21.5527 18.075 21.5527C15.3504 21.5527 13.114 19.3262 13.114 16.5918C13.114 13.877 15.3504 11.6309 18.075 11.6309C20.7898 11.6309 23.0359 13.877 23.0359 16.5918ZM17.4695 14.0918V15.9961H15.5652C15.2039 15.9961 14.9695 16.2305 14.9695 16.5918C14.9695 16.9531 15.2039 17.1973 15.5652 17.1973H17.4695V19.1016C17.4695 19.4629 17.7039 19.6973 18.075 19.6973C18.4363 19.6973 18.6707 19.4629 18.6707 19.1016V17.1973H20.575C20.9363 17.1973 21.1805 16.9531 21.1805 16.5918C21.1805 16.2305 20.9363 15.9961 20.575 15.9961H18.6707V14.0918C18.6707 13.7305 18.4363 13.4863 18.075 13.4863C17.7039 13.4863 17.4695 13.7305 17.4695 14.0918Z" fill="var(--fill-0, #7F56D9)"/>
</g>
<defs>
<clipPath id="clip0_5627_12969">
<rect width="23.6475" height="23.3041" fill="white"/>
</clipPath>
</defs>
</svg>
