<svg preserveAspectRatio="none" width="100%" height="100%" overflow="visible" style="display: block;" viewBox="0 0 20 20" fill="none" xmlns="http://www.w3.org/2000/svg">
<path id="&#244;&#128;&#163;&#139;" d="M9.05608 20C8.6947 20 8.38318 19.8971 8.1215 19.6913C7.85981 19.4917 7.69159 19.2173 7.61682 18.8681L7.20561 17.1188L6.90654 17.0159L5.39252 17.9514C5.08723 18.1384 4.76947 18.2102 4.43925 18.1665C4.10903 18.1291 3.8162 17.9825 3.56075 17.7268L2.26168 16.4266C2 16.1646 1.84735 15.8715 1.80374 15.5472C1.76636 15.2167 1.84424 14.9018 2.03738 14.6024L2.98131 13.087L2.8785 12.8064L1.13084 12.3948C0.788162 12.3199 0.514019 12.1515 0.308411 11.8896C0.102804 11.6215 0 11.3096 0 10.9542V9.10196C0 8.74649 0.0996885 8.43779 0.299065 8.17587C0.504673 7.91394 0.781932 7.74244 1.13084 7.66137L2.85981 7.24041L2.97196 6.94107L2.02804 5.42563C1.83489 5.12629 1.75701 4.81447 1.79439 4.49018C1.83801 4.15965 1.99065 3.86342 2.25234 3.6015L3.5514 2.29186C3.80685 2.04241 4.09657 1.89585 4.42056 1.8522C4.75078 1.80854 5.06854 1.88026 5.37383 2.06735L6.88785 3.00281L7.20561 2.8812L7.61682 1.1319C7.69159 0.788899 7.85981 0.5145 8.1215 0.3087C8.38318 0.1029 8.6947 0 9.05608 0H10.9439C11.3053 0 11.6137 0.1029 11.8692 0.3087C12.1308 0.5145 12.3022 0.788899 12.3832 1.1319L12.785 2.8812L13.1028 3.00281L14.6262 2.06735C14.9252 1.88026 15.2399 1.80854 15.5701 1.8522C15.9003 1.89585 16.19 2.04241 16.4393 2.29186L17.7477 3.6015C18.0093 3.86342 18.1589 4.15965 18.1963 4.49018C18.2336 4.81447 18.1589 5.12629 17.972 5.42563L17.0187 6.94107L17.1402 7.24041L18.8692 7.66137C19.2118 7.74244 19.486 7.91394 19.6916 8.17587C19.8972 8.43779 20 8.74649 20 9.10196V10.9542C20 11.3096 19.8972 11.6215 19.6916 11.8896C19.486 12.1515 19.2118 12.3199 18.8692 12.3948L17.1215 12.8064L17.0093 13.087L17.9626 14.6024C18.1495 14.9018 18.2212 15.2167 18.1776 15.5472C18.1402 15.8715 17.9938 16.1646 17.7383 16.4266L16.4299 17.7268C16.1745 17.9825 15.8816 18.1291 15.5514 18.1665C15.2212 18.2102 14.9065 18.1384 14.6075 17.9514L13.0841 17.0159L12.785 17.1188L12.3832 18.8681C12.3022 19.2173 12.1308 19.4917 11.8692 19.6913C11.6137 19.8971 11.3053 20 10.9439 20H9.05608ZM9.20561 18.5407H10.7944C10.9502 18.5407 11.0374 18.469 11.0561 18.3255L11.6262 16.0056C11.9128 15.937 12.1838 15.8497 12.4393 15.7437C12.6947 15.6314 12.9221 15.5129 13.1215 15.3882L15.1589 16.6417C15.2897 16.729 15.4081 16.7134 15.514 16.5949L16.6075 15.4911C16.7134 15.3976 16.7259 15.2822 16.6449 15.145L15.3925 13.1244C15.5047 12.9249 15.6137 12.6972 15.7196 12.4415C15.8318 12.1858 15.9252 11.9146 16 11.6277L18.3271 11.0758C18.4704 11.0508 18.5421 10.9604 18.5421 10.8045V9.24228C18.5421 9.09261 18.4704 9.00218 18.3271 8.971L16.0093 8.40973C15.9346 8.10415 15.838 7.82039 15.7196 7.55847C15.6012 7.29654 15.4984 7.07827 15.4112 6.90365L16.6542 4.88307C16.7414 4.74587 16.7321 4.62426 16.6262 4.51824L15.5234 3.43311C15.4112 3.33333 15.2897 3.31774 15.1589 3.38634L13.1308 4.62114C12.9252 4.50889 12.6947 4.39975 12.4393 4.29373C12.19 4.18148 11.919 4.08793 11.6262 4.0131L11.0561 1.67446C11.0374 1.53103 10.9502 1.45931 10.7944 1.45931H9.20561C9.04984 1.45931 8.9595 1.53103 8.93458 1.67446L8.38318 3.99439C8.1028 4.06922 7.82555 4.16277 7.5514 4.27502C7.28349 4.38728 7.04984 4.49953 6.85047 4.61179L4.83178 3.38634C4.70093 3.31774 4.58255 3.33333 4.47664 3.43311L3.36449 4.51824C3.2648 4.62426 3.25545 4.74587 3.33645 4.88307L4.57944 6.90365C4.49844 7.07827 4.39564 7.29654 4.27103 7.55847C4.15265 7.82039 4.05608 8.10415 3.98131 8.40973L1.6729 8.971C1.5296 9.00218 1.45794 9.09261 1.45794 9.24228V10.8045C1.45794 10.9604 1.5296 11.0508 1.6729 11.0758L3.99065 11.6277C4.06542 11.9146 4.15888 12.1858 4.27103 12.4415C4.38318 12.6972 4.49221 12.9249 4.59813 13.1244L3.34579 15.145C3.27103 15.2822 3.28349 15.3976 3.38318 15.4911L4.48598 16.5949C4.5919 16.7134 4.70717 16.729 4.83178 16.6417L6.86916 15.3882C7.06854 15.5129 7.29595 15.6314 7.5514 15.7437C7.81308 15.8497 8.08723 15.937 8.37383 16.0056L8.93458 18.3255C8.9595 18.469 9.04984 18.5407 9.20561 18.5407ZM10 13.5641C9.33956 13.5641 8.73832 13.4051 8.19626 13.087C7.66044 12.7627 7.23364 12.3324 6.91589 11.7961C6.59813 11.2535 6.43925 10.6548 6.43925 10C6.43925 9.33895 6.59813 8.74026 6.91589 8.20393C7.23364 7.6676 7.66044 7.24041 8.19626 6.92236C8.73832 6.59807 9.33956 6.43592 10 6.43592C10.6542 6.43592 11.2492 6.59807 11.785 6.92236C12.3271 7.24041 12.757 7.6676 13.0748 8.20393C13.3988 8.74026 13.5607 9.33895 13.5607 10C13.5607 10.6548 13.3988 11.2535 13.0748 11.7961C12.757 12.3324 12.3271 12.7627 11.785 13.087C11.2492 13.4051 10.6542 13.5641 10 13.5641ZM10 12.1141C10.3863 12.1141 10.7383 12.0206 11.0561 11.8335C11.3801 11.6402 11.6355 11.3845 11.8224 11.0664C12.0156 10.7421 12.1121 10.3867 12.1121 10C12.1121 9.60711 12.0156 9.25164 11.8224 8.93358C11.6355 8.61553 11.3801 8.36296 11.0561 8.17587C10.7383 7.98254 10.3863 7.88587 10 7.88587C9.60748 7.88587 9.25234 7.98254 8.93458 8.17587C8.61682 8.36296 8.36137 8.61553 8.16822 8.93358C7.98131 9.25164 7.88785 9.60711 7.88785 10C7.88785 10.3867 7.98131 10.7421 8.16822 11.0664C8.36137 11.3845 8.61682 11.6402 8.93458 11.8335C9.25234 12.0206 9.60748 12.1141 10 12.1141Z" fill="var(--fill-0, #667085)"/>
</svg>
