<svg preserveAspectRatio="none" width="100%" height="100%" overflow="visible" style="display: block;" viewBox="0 0 17.4802 21.3051" fill="none" xmlns="http://www.w3.org/2000/svg">
<path id="&#244;&#129;&#149;&#141;" d="M4.6866 4.46678C4.42867 4.46678 4.22644 4.39057 4.07989 4.23816C3.93334 4.08575 3.86007 3.87179 3.86007 3.59628V2.67303C3.86007 2.39752 3.93334 2.18356 4.07989 2.03115C4.22644 1.87874 4.42867 1.80254 4.6866 1.80254H5.48675C5.51606 1.30428 5.71243 0.879287 6.07587 0.527572C6.44517 0.175857 6.88481 0 7.3948 0C7.90479 0 8.3415 0.175857 8.70494 0.527572C9.07424 0.879287 9.27354 1.30428 9.30285 1.80254H10.1118C10.3697 1.80254 10.572 1.87874 10.7185 2.03115C10.8651 2.18356 10.9383 2.39752 10.9383 2.67303V3.59628C10.9383 3.87179 10.8651 4.08575 10.7185 4.23816C10.572 4.39057 10.3697 4.46678 10.1118 4.46678H4.6866ZM7.3948 2.63786C7.61169 2.63786 7.79341 2.56166 7.93996 2.40925C8.08651 2.25684 8.15978 2.07805 8.15978 1.87288C8.15978 1.65599 8.08651 1.47427 7.93996 1.32772C7.79341 1.17531 7.61169 1.09911 7.3948 1.09911C7.18377 1.09911 7.00205 1.17531 6.84964 1.32772C6.7031 1.47427 6.62982 1.65599 6.62982 1.87288C6.62982 2.07805 6.7031 2.25684 6.84964 2.40925C7.00205 2.56166 7.18377 2.63786 7.3948 2.63786ZM2.72579 21.3051C1.81719 21.3051 1.13428 21.0736 0.677051 20.6105C0.225684 20.1533 0 19.4645 0 18.5442V5.21417C0 4.31144 0.216891 3.62559 0.650672 3.15664C1.09032 2.68769 1.74978 2.45321 2.62907 2.45321H2.8401C2.83423 2.48838 2.8313 2.52648 2.8313 2.56752C2.8313 2.60269 2.8313 2.63786 2.8313 2.67303V3.46439C2.8313 3.62852 2.84303 3.76335 2.86647 3.86886H2.66424C2.24804 3.86886 1.93443 3.99196 1.7234 4.23816C1.51824 4.48436 1.41565 4.81556 1.41565 5.23176V18.5266C1.41565 18.9662 1.53289 19.3033 1.76737 19.5378C2.00184 19.7722 2.3477 19.8895 2.80492 19.8895H11.9935C12.4507 19.8895 12.7936 19.7722 13.0222 19.5378C13.2567 19.3033 13.3739 18.9662 13.3739 18.5266V12.4067L14.7896 10.9911V18.5442C14.7896 19.4645 14.561 20.1533 14.1038 20.6105C13.6524 21.0736 12.9724 21.3051 12.0638 21.3051H2.72579ZM13.3739 6.57706V5.23176C13.3739 4.81556 13.2684 4.48436 13.0574 4.23816C12.8522 3.99196 12.5445 3.86886 12.1342 3.86886H11.9231C11.9466 3.76335 11.9583 3.62852 11.9583 3.46439V2.67303C11.9583 2.63786 11.9583 2.60269 11.9583 2.56752C11.9583 2.52648 11.9554 2.48838 11.9495 2.45321H12.1605C13.0164 2.45321 13.667 2.66424 14.1126 3.0863C14.5639 3.50835 14.7896 4.10334 14.7896 4.87125V5.16141C14.7486 5.20245 14.7075 5.24348 14.6665 5.28451C14.6255 5.32555 14.5844 5.36658 14.5434 5.40761L13.3739 6.57706ZM2.9632 8.82804C2.9632 8.67563 3.01595 8.54667 3.12147 8.44115C3.23284 8.32978 3.36474 8.27409 3.51715 8.27409H11.2812C11.4043 8.27409 11.5099 8.30047 11.5978 8.35322L10.5778 9.3732H3.51715C3.36474 9.3732 3.23284 9.32044 3.12147 9.21493C3.01595 9.10355 2.9632 8.97459 2.9632 8.82804ZM2.9632 11.9407C2.9632 11.7942 3.01595 11.6681 3.12147 11.5626C3.23284 11.4571 3.36474 11.4043 3.51715 11.4043H8.54667L7.45635 12.4947H3.51715C3.36474 12.4947 3.23284 12.4419 3.12147 12.3364C3.01595 12.225 2.9632 12.0931 2.9632 11.9407ZM3.51715 15.7832C3.36474 15.7832 3.23284 15.7304 3.12147 15.6249C3.01595 15.5135 2.9632 15.3846 2.9632 15.238C2.9632 15.0856 3.01595 14.9567 3.12147 14.8512C3.23284 14.7456 3.36474 14.6929 3.51715 14.6929H4.73936C4.89176 14.6929 5.02073 14.7456 5.12624 14.8512C5.23762 14.9567 5.29331 15.0856 5.29331 15.238C5.29331 15.3846 5.23762 15.5135 5.12624 15.6249C5.02073 15.7304 4.89176 15.7832 4.73936 15.7832H3.51715ZM16.5833 7.5179L15.3611 6.2869L16.0206 5.62744C16.1672 5.48089 16.3371 5.40175 16.5306 5.39003C16.7299 5.3783 16.8999 5.44278 17.0406 5.58347L17.2516 5.7945C17.404 5.94691 17.4802 6.12277 17.4802 6.32207C17.4802 6.51551 17.4011 6.69137 17.2428 6.84964L16.5833 7.5179ZM6.72654 16.3723C6.64448 16.4075 6.56827 16.387 6.49793 16.3108C6.42759 16.2346 6.41293 16.1584 6.45396 16.0822L7.29808 14.35L14.6929 6.95516L15.9327 8.17737L8.52029 15.5722L6.72654 16.3723Z" fill="var(--fill-0, #667085)"/>
</svg>
