<svg preserveAspectRatio="none" width="100%" height="100%" overflow="visible" style="display: block;" viewBox="0 0 19 19" fill="none" xmlns="http://www.w3.org/2000/svg">
<path id="&#244;&#128;&#161;&#145;" d="M0.111765 14.5599C0.664379 15.5589 1.32565 16.4253 2.09559 17.1592C2.86552 17.8931 3.75964 18.5067 4.77794 19H1.79755C0.673693 19 0.111765 18.4542 0.111765 17.3627V14.5599ZM18.9255 14.5599V17.3627C18.9255 18.4542 18.3636 19 17.2397 19H14.2686C15.2807 18.5067 16.1717 17.8931 16.9417 17.1592C17.7116 16.4253 18.3729 15.5589 18.9255 14.5599ZM6.30539 7.16894C6.175 7.03944 6.1098 6.88835 6.1098 6.71568C6.11601 6.53684 6.18121 6.38575 6.30539 6.26241C6.43578 6.13291 6.58791 6.06816 6.76176 6.06816C6.93562 6.06816 7.09085 6.13291 7.22745 6.26241L9.52794 8.56573L13.3279 4.79163C13.4583 4.66212 13.6074 4.60045 13.775 4.60662C13.9489 4.60662 14.1041 4.66829 14.2407 4.79163C14.3773 4.91496 14.4425 5.06605 14.4363 5.24489C14.4363 5.41756 14.3711 5.56865 14.2407 5.69815L9.99363 9.91626C9.86323 10.0458 9.70801 10.1105 9.52794 10.1105C9.35408 10.1105 9.20196 10.0458 9.07157 9.91626L6.30539 7.16894ZM9.5 18.8705C8.18987 18.8705 6.96046 18.6238 5.81176 18.1305C4.66307 17.6433 3.65408 16.968 2.7848 16.1047C1.91552 15.2413 1.23252 14.2392 0.735784 13.0983C0.245261 11.9575 0 10.7364 0 9.43525C0 8.13405 0.245261 6.91302 0.735784 5.77215C1.23252 4.63129 1.91552 3.62918 2.7848 2.76582C3.65408 1.8963 4.66307 1.21795 5.81176 0.730769C6.96046 0.24359 8.18987 0 9.5 0C10.8101 0 12.0395 0.24359 13.1882 0.730769C14.3369 1.21795 15.3459 1.8963 16.2152 2.76582C17.0845 3.62918 17.7644 4.63129 18.2549 5.77215C18.7516 6.91302 19 8.13405 19 9.43525C19 10.7364 18.7516 11.9575 18.2549 13.0983C17.7644 14.2392 17.0845 15.2413 16.2152 16.1047C15.3459 16.968 14.3369 17.6433 13.1882 18.1305C12.0395 18.6238 10.8101 18.8705 9.5 18.8705ZM9.5 17.298C10.5928 17.298 11.6173 17.0945 12.5735 16.6874C13.5297 16.2804 14.3711 15.7162 15.0975 14.9946C15.824 14.2731 16.3922 13.4375 16.802 12.4878C17.2118 11.5381 17.4167 10.5206 17.4167 9.43525C17.4167 8.34989 17.2118 7.33236 16.802 6.38267C16.3922 5.42681 15.824 4.5912 15.0975 3.87585C14.3711 3.15433 13.5297 2.59007 12.5735 2.18306C11.6173 1.77605 10.5928 1.57254 9.5 1.57254C8.40719 1.57254 7.38268 1.77605 6.42647 2.18306C5.47026 2.59007 4.62892 3.15433 3.90245 3.87585C3.17598 4.5912 2.60784 5.42681 2.19804 6.38267C1.78824 7.33236 1.58333 8.34989 1.58333 9.43525C1.58333 10.5206 1.78824 11.5381 2.19804 12.4878C2.60784 13.4375 3.17598 14.2731 3.90245 14.9946C4.62892 15.7162 5.47026 16.2804 6.42647 16.6874C7.38268 17.0945 8.40719 17.298 9.5 17.298Z" fill="var(--fill-0, #667085)"/>
</svg>
