<svg preserveAspectRatio="none" width="100%" height="100%" overflow="visible" style="display: block;" viewBox="0 0 24 16.017" fill="none" xmlns="http://www.w3.org/2000/svg">
<path id="&#244;&#129;&#153;&#154;" d="M1.48996 13.5265C0.993305 13.5265 0.620816 13.4242 0.372489 13.2197C0.124163 13.0201 0 12.7158 0 12.3068C0 11.703 0.14364 11.1236 0.430919 10.5685C0.718198 10.0085 1.11503 9.51187 1.62142 9.07852C2.13268 8.64029 2.72185 8.29458 3.38892 8.04139C4.06086 7.78819 4.77906 7.66159 5.54352 7.66159C6.14729 7.66159 6.72672 7.74194 7.2818 7.90262C7.83688 8.05843 8.35058 8.28971 8.82288 8.59647C8.6622 8.71333 8.51369 8.83749 8.37736 8.96896C8.24102 9.09556 8.11442 9.23189 7.99757 9.37797C7.64212 9.16859 7.25746 9.01035 6.84358 8.90323C6.43457 8.7961 6.00122 8.74254 5.54352 8.74254C4.94948 8.74254 4.38466 8.83993 3.84906 9.03469C3.31345 9.22459 2.83871 9.48509 2.42483 9.81619C2.01096 10.1424 1.68472 10.5149 1.44614 10.9337C1.20755 11.3524 1.08825 11.7882 1.08825 12.241C1.08825 12.3141 1.1053 12.3652 1.13938 12.3944C1.17833 12.4285 1.23433 12.4455 1.30736 12.4455H6.65368C6.62934 12.6695 6.67316 12.8813 6.78515 13.0809C6.90201 13.2806 7.04808 13.4291 7.22337 13.5265H1.48996ZM5.55082 6.82897C5.0493 6.82897 4.5916 6.69507 4.17772 6.42727C3.76385 6.1546 3.43274 5.79184 3.18442 5.33901C2.93609 4.88618 2.81193 4.38466 2.81193 3.83445C2.81193 3.29397 2.93609 2.80219 3.18442 2.3591C3.43274 1.91114 3.76385 1.55569 4.17772 1.29276C4.5916 1.02495 5.0493 0.891053 5.55082 0.891053C6.05721 0.891053 6.51735 1.02252 6.93122 1.28545C7.3451 1.54839 7.67377 1.9014 7.91722 2.34449C8.16555 2.78758 8.28971 3.27937 8.28971 3.81984C8.28971 4.37005 8.16555 4.87401 7.91722 5.33171C7.67377 5.78941 7.34267 6.1546 6.92392 6.42727C6.51004 6.69507 6.05234 6.82897 5.55082 6.82897ZM5.55082 5.74072C5.85271 5.74072 6.12781 5.65551 6.37614 5.48509C6.62934 5.3098 6.83141 5.07851 6.98235 4.79124C7.13329 4.49909 7.20876 4.17529 7.20876 3.81984C7.20876 3.47413 7.13329 3.16251 6.98235 2.88497C6.83628 2.60743 6.63664 2.38831 6.38344 2.22763C6.13512 2.06208 5.85758 1.97931 5.55082 1.97931C5.24893 1.97931 4.97383 2.06208 4.7255 2.22763C4.47718 2.39318 4.27754 2.61716 4.1266 2.89957C3.97565 3.17712 3.90018 3.48874 3.90018 3.83445C3.90018 4.18503 3.97565 4.50639 4.1266 4.79854C4.27754 5.08582 4.47718 5.31467 4.7255 5.48509C4.9787 5.65551 5.2538 5.74072 5.55082 5.74072ZM15.6738 13.5265H9.38527C8.18746 13.5265 7.58856 13.1369 7.58856 12.3579C7.58856 11.8807 7.73463 11.3719 8.02678 10.8314C8.31893 10.2909 8.74011 9.78211 9.29032 9.30493C9.8454 8.82288 10.5149 8.43092 11.2988 8.12903C12.0876 7.82715 12.9787 7.6762 13.972 7.6762C14.6342 7.6762 15.2502 7.74924 15.8198 7.89531C16.3895 8.03652 16.9105 8.23128 17.3828 8.47961C17.227 8.60134 17.0809 8.73281 16.9446 8.87401C16.8083 9.01035 16.6792 9.15886 16.5575 9.31954C16.1972 9.15399 15.8004 9.02252 15.367 8.92514C14.9337 8.82775 14.4687 8.77906 13.972 8.77906C13.1345 8.77906 12.392 8.90079 11.7444 9.14425C11.0968 9.38284 10.5514 9.68472 10.1083 10.0499C9.67011 10.4151 9.33658 10.7925 9.10773 11.182C8.87888 11.5715 8.76445 11.9172 8.76445 12.2191C8.76445 12.297 8.78393 12.3506 8.82288 12.3798C8.86671 12.409 8.93731 12.4236 9.03469 12.4236H15.4985C15.4985 12.6135 15.5131 12.801 15.5423 12.986C15.5764 13.171 15.6202 13.3512 15.6738 13.5265ZM13.9647 6.76324C13.3853 6.76324 12.857 6.60986 12.3798 6.3031C11.9026 5.99148 11.5204 5.5776 11.2331 5.06147C10.9507 4.54047 10.8095 3.96592 10.8095 3.3378C10.8095 2.71455 10.9507 2.15216 11.2331 1.65064C11.5204 1.14425 11.9026 0.742544 12.3798 0.445526C12.857 0.148509 13.3853 0 13.9647 0C14.5441 0 15.0724 0.150943 15.5496 0.45283C16.0268 0.754717 16.4066 1.15886 16.689 1.66525C16.9763 2.17164 17.1199 2.73402 17.1199 3.3524C17.1199 3.97565 16.9763 4.54778 16.689 5.06878C16.4066 5.58491 16.0268 5.99635 15.5496 6.3031C15.0724 6.60986 14.5441 6.76324 13.9647 6.76324ZM13.9647 5.66038C14.3201 5.66038 14.6488 5.55813 14.9507 5.35362C15.2526 5.14912 15.4936 4.87158 15.6738 4.521C15.8539 4.17042 15.944 3.78089 15.944 3.3524C15.944 2.92879 15.8539 2.54656 15.6738 2.20572C15.4985 1.86488 15.2599 1.59708 14.958 1.40231C14.6561 1.20268 14.325 1.10286 13.9647 1.10286C13.6044 1.10286 13.2733 1.20024 12.9714 1.39501C12.6744 1.58977 12.4358 1.85758 12.2556 2.19842C12.0755 2.53439 11.9854 2.91418 11.9854 3.3378C11.9854 3.76628 12.0755 4.15825 12.2556 4.51369C12.4358 4.86427 12.6768 5.14425 12.9787 5.35362C13.2806 5.55813 13.6093 5.66038 13.9647 5.66038ZM19.8953 16.017C19.7833 16.017 19.6835 15.983 19.5959 15.9148C19.5131 15.8515 19.462 15.7638 19.4425 15.6519L19.2745 14.9361C19.2258 14.9215 19.1747 14.9044 19.1211 14.885C19.0724 14.8655 19.0164 14.8387 18.9531 14.8046L18.3177 15.1917C18.2203 15.2502 18.1205 15.2769 18.0183 15.2721C17.916 15.2672 17.8235 15.2209 17.7407 15.1333L17.3171 14.6951C17.2392 14.6172 17.1954 14.5271 17.1856 14.4248C17.1808 14.3226 17.2075 14.2203 17.266 14.1181L17.6385 13.4827C17.619 13.4291 17.5971 13.378 17.5727 13.3293C17.5533 13.2855 17.5338 13.2392 17.5143 13.1905L16.7912 13.0152C16.6792 12.986 16.5892 12.93 16.521 12.8472C16.4577 12.7693 16.4261 12.6719 16.4261 12.5551V11.9343C16.4261 11.832 16.4577 11.7419 16.521 11.664C16.5892 11.5813 16.6792 11.5253 16.7912 11.496L17.507 11.3208C17.5265 11.2672 17.546 11.2161 17.5654 11.1674C17.5898 11.1138 17.6117 11.0651 17.6312 11.0213L17.2295 10.3713C17.171 10.2788 17.1491 10.1814 17.1637 10.0791C17.1832 9.972 17.2319 9.87949 17.3098 9.80158L17.7407 9.37066C17.8235 9.28789 17.916 9.2392 18.0183 9.22459C18.1254 9.20998 18.2203 9.23189 18.3031 9.29032L18.9385 9.69203C18.9921 9.65794 19.0456 9.6336 19.0992 9.61899C19.1528 9.59951 19.2112 9.5776 19.2745 9.55326L19.4425 8.83019C19.462 8.72794 19.5131 8.64273 19.5959 8.57456C19.6835 8.50152 19.7833 8.465 19.8953 8.465H20.5234C20.6354 8.465 20.7328 8.49909 20.8156 8.56726C20.8984 8.63542 20.9519 8.72307 20.9763 8.83019L21.1516 9.56056C21.2002 9.58004 21.2514 9.59951 21.3049 9.61899C21.3585 9.6336 21.4145 9.65794 21.4729 9.69203L22.1156 9.29032C22.2033 9.23189 22.2982 9.20998 22.4005 9.22459C22.5027 9.2392 22.5953 9.28789 22.678 9.37066L23.1236 9.80158C23.2015 9.87462 23.2453 9.9647 23.255 10.0718C23.2648 10.1789 23.2404 10.2788 23.182 10.3713L22.7876 11.0213C22.8071 11.0651 22.8265 11.1114 22.846 11.1601C22.8704 11.2039 22.8947 11.2575 22.9191 11.3208L23.6275 11.496C23.7395 11.5253 23.8296 11.5788 23.8977 11.6567C23.9659 11.7346 24 11.8271 24 11.9343V12.5551C24 12.6719 23.9659 12.7693 23.8977 12.8472C23.8344 12.93 23.7444 12.986 23.6275 13.0152L22.9044 13.1905C22.8898 13.2392 22.8728 13.2855 22.8533 13.3293C22.8338 13.378 22.8095 13.4291 22.7803 13.4827L23.1528 14.1108C23.2161 14.2179 23.2428 14.3201 23.2331 14.4175C23.2282 14.5198 23.1869 14.6123 23.1089 14.6951L22.678 15.1333C22.5904 15.2209 22.4954 15.2672 22.3932 15.2721C22.2958 15.2769 22.1984 15.2502 22.101 15.1917L21.4729 14.8046C21.3707 14.8582 21.2635 14.902 21.1516 14.9361L20.9763 15.6519C20.9519 15.7687 20.8984 15.8588 20.8156 15.9221C20.7328 15.9854 20.6354 16.017 20.5234 16.017H19.8953ZM20.2094 13.468C20.5405 13.468 20.8253 13.3463 21.0639 13.1029C21.3025 12.8643 21.4218 12.5794 21.4218 12.2483C21.4218 11.9124 21.3025 11.6251 21.0639 11.3865C20.8253 11.1479 20.5405 11.0286 20.2094 11.0286C19.8734 11.0286 19.5861 11.1479 19.3475 11.3865C19.1089 11.6251 18.9897 11.9124 18.9897 12.2483C18.9897 12.5794 19.1089 12.8643 19.3475 13.1029C19.5861 13.3463 19.8734 13.468 20.2094 13.468Z" fill="var(--fill-0, #667085)"/>
</svg>
