<svg preserveAspectRatio="none" width="100%" height="100%" overflow="visible" style="display: block;" viewBox="0 0 15.8333 15.8333" fill="none" xmlns="http://www.w3.org/2000/svg">
<path id="&#244;&#128;&#132;&#160;" d="M2.70052 15.8333C1.80035 15.8333 1.12379 15.6097 0.670831 15.1625C0.22361 14.721 0 14.0588 0 13.1758V2.66612C0 1.77742 0.22361 1.11232 0.670831 0.670831C1.12379 0.22361 1.80035 0 2.70052 0H13.1328C14.033 0 14.7067 0.22361 15.1539 0.670831C15.6069 1.11805 15.8333 1.78315 15.8333 2.66612V13.1758C15.8333 14.0588 15.6069 14.721 15.1539 15.1625C14.7067 15.6097 14.033 15.8333 13.1328 15.8333H2.70052ZM2.71773 14.4487H13.1156C13.5399 14.4487 13.8667 14.3369 14.0961 14.1133C14.3311 13.8839 14.4487 13.5456 14.4487 13.0984V2.74353C14.4487 2.29631 14.3311 1.95802 14.0961 1.72868C13.8667 1.49934 13.5399 1.38466 13.1156 1.38466H2.71773C2.28771 1.38466 1.95802 1.49934 1.72868 1.72868C1.49934 1.95802 1.38466 2.29631 1.38466 2.74353V13.0984C1.38466 13.5456 1.49934 13.8839 1.72868 14.1133C1.95802 14.3369 2.28771 14.4487 2.71773 14.4487ZM3.47456 8.97021C3.47456 8.27645 3.6265 7.68302 3.93038 7.18993C4.23426 6.69111 4.64995 6.30982 5.17744 6.04608C5.70493 5.7766 6.30409 5.64186 6.97492 5.64186H9.53784L10.5613 5.67626L9.88186 5.14304L8.98742 4.283C8.86128 4.16259 8.79821 4.01352 8.79821 3.83578C8.79821 3.65804 8.85554 3.50896 8.97021 3.38856C9.09062 3.26815 9.23683 3.20795 9.40884 3.20795C9.58658 3.20795 9.73565 3.27102 9.85606 3.39716L12.1352 5.71926C12.29 5.86834 12.3674 6.04321 12.3674 6.24389C12.3674 6.43883 12.29 6.61084 12.1352 6.75991L9.84746 9.10782C9.72705 9.22823 9.57798 9.28843 9.40023 9.28843C9.23396 9.28843 9.09062 9.22823 8.97021 9.10782C8.85554 8.98742 8.79821 8.83834 8.79821 8.6606C8.79821 8.47713 8.85841 8.32805 8.97882 8.21338L10.0625 7.18133L10.5613 6.81152L9.53784 6.84592H6.97492C6.34423 6.84592 5.81387 7.02366 5.38385 7.37914C4.95383 7.72889 4.73882 8.23631 4.73882 8.90141C4.73882 9.57798 4.95096 10.1141 5.37525 10.5097C5.79953 10.8996 6.33563 11.0945 6.98352 11.0945C7.01792 11.0945 7.12973 11.0945 7.31894 11.0945C7.51388 11.0945 7.70309 11.0945 7.88656 11.0945C8.07004 11.0945 8.16751 11.0945 8.17898 11.0945C8.36245 11.0945 8.51439 11.1461 8.6348 11.2493C8.76094 11.3525 8.82401 11.5045 8.82401 11.7051C8.82401 11.9058 8.76094 12.0606 8.6348 12.1696C8.50866 12.2728 8.35099 12.3244 8.16178 12.3244C8.14458 12.3244 8.04424 12.3244 7.86076 12.3244C7.68302 12.3244 7.49955 12.3244 7.31034 12.3244C7.12686 12.3244 7.01792 12.3244 6.98352 12.3244C6.31269 12.3244 5.71353 12.1896 5.18604 11.9202C4.65855 11.6449 4.24 11.2579 3.93038 10.7591C3.6265 10.2545 3.47456 9.65825 3.47456 8.97021Z" fill="var(--fill-0, #667085)"/>
</svg>
