<svg preserveAspectRatio="none" width="100%" height="100%" overflow="visible" style="display: block;" viewBox="0 0 17.567 14.5477" fill="none" xmlns="http://www.w3.org/2000/svg">
<path id="&#244;&#128;&#170;&#188;" d="M0.216877 4.01397C0.0722923 3.904 0 3.76522 0 3.59765C0 3.43007 0.0722923 3.2913 0.216877 3.18133L2.36958 1.6103C2.58378 1.4532 2.80066 1.41392 3.02021 1.49247C3.23977 1.56579 3.34954 1.74384 3.34954 2.02662V2.97709H5.42192C5.59864 2.97709 5.74858 3.03732 5.87174 3.15776C5.9949 3.27297 6.05649 3.41698 6.05649 3.58979C6.05649 3.76261 5.9949 3.90923 5.87174 4.02968C5.74858 4.14489 5.59864 4.20249 5.42192 4.20249H3.34954V5.16867C3.34954 5.44098 3.24244 5.61903 3.02824 5.70282C2.81404 5.78661 2.59449 5.74472 2.36958 5.57714L0.216877 4.01397ZM5.51028 14.5477C4.19295 14.5477 3.53429 14.1288 3.53429 13.2909C3.53429 12.7777 3.69494 12.2304 4.01624 11.6492C4.33754 11.0679 4.80074 10.5206 5.40586 10.0074C6.01633 9.48899 6.75264 9.06743 7.61479 8.74276C8.4823 8.41808 9.46226 8.25574 10.5547 8.25574C11.6417 8.25574 12.6163 8.41808 13.4785 8.74276C14.346 9.06743 15.0823 9.48899 15.6874 10.0074C16.2979 10.5206 16.7638 11.0679 17.0851 11.6492C17.4064 12.2304 17.567 12.7777 17.567 13.2909C17.567 14.1288 16.911 14.5477 15.5991 14.5477H5.51028ZM5.12472 13.3616H15.9846C16.0864 13.3616 16.1587 13.3459 16.2015 13.3144C16.2497 13.283 16.2738 13.2254 16.2738 13.1416C16.2738 12.8169 16.148 12.4451 15.8963 12.0262C15.6499 11.6073 15.2831 11.2014 14.7958 10.8087C14.3085 10.4159 13.7088 10.0912 12.9965 9.83462C12.2897 9.57278 11.4757 9.44186 10.5547 9.44186C9.63362 9.44186 8.81698 9.57278 8.10477 9.83462C7.39256 10.0912 6.7928 10.4159 6.30549 10.8087C5.81819 11.2014 5.4487 11.6073 5.19701 12.0262C4.95068 12.4451 4.82752 12.8169 4.82752 13.1416C4.82752 13.2254 4.84894 13.283 4.89178 13.3144C4.93997 13.3459 5.01762 13.3616 5.12472 13.3616ZM10.5547 7.27385C9.91743 7.27385 9.33642 7.10889 8.81163 6.77897C8.28684 6.44906 7.86647 6.00655 7.55053 5.45146C7.23994 4.89113 7.08464 4.27581 7.08464 3.6055C7.08464 2.94044 7.23994 2.33559 7.55053 1.79097C7.86647 1.24635 8.28684 0.811696 8.81163 0.487018C9.33642 0.162339 9.91743 0 10.5547 0C11.1973 0 11.781 0.159721 12.3058 0.479163C12.8305 0.798604 13.2482 1.23064 13.5588 1.77526C13.8694 2.31464 14.0247 2.91949 14.0247 3.58979C14.0247 4.26533 13.8667 4.88327 13.5508 5.4436C13.2402 5.9987 12.8225 6.44382 12.2977 6.77897C11.7729 7.10889 11.1919 7.27385 10.5547 7.27385ZM10.5547 6.08772C10.9509 6.08772 11.3124 5.97775 11.6391 5.75781C11.9711 5.53263 12.2361 5.23151 12.4343 4.85447C12.6324 4.47219 12.7315 4.05063 12.7315 3.58979C12.7315 3.1342 12.6324 2.72573 12.4343 2.36439C12.2415 1.99782 11.9791 1.7098 11.6471 1.50033C11.3204 1.29086 10.9563 1.18612 10.5547 1.18612C10.1584 1.18612 9.79427 1.29348 9.46226 1.50818C9.1356 1.71765 8.87321 2.00568 8.67507 2.37225C8.47694 2.73882 8.37787 3.14991 8.37787 3.6055C8.37787 4.06634 8.47694 4.48528 8.67507 4.86232C8.87856 5.23937 9.14364 5.53786 9.47029 5.75781C9.8023 5.97775 10.1638 6.08772 10.5547 6.08772Z" fill="var(--fill-0, #667085)"/>
</svg>
