<svg preserveAspectRatio="none" width="100%" height="100%" overflow="visible" style="display: block;" viewBox="0 0 20.0017 16.6646" fill="none" xmlns="http://www.w3.org/2000/svg">
<path id="Icon" d="M13.3378 11.6646L10.0044 8.33129M10.0044 8.33129L6.67111 11.6646M10.0044 8.33129V15.8313M16.9961 13.6563C17.8089 13.2132 18.451 12.512 18.821 11.6635C19.191 10.8149 19.268 9.86731 19.0396 8.97019C18.8113 8.07308 18.2907 7.27754 17.56 6.70916C16.8293 6.14077 15.9302 5.8319 15.0044 5.83129H13.9544C13.7022 4.85565 13.2321 3.9499 12.5794 3.18211C11.9267 2.41433 11.1085 1.80449 10.1862 1.39846C9.2639 0.992423 8.26157 0.800751 7.25454 0.837854C6.24751 0.874957 5.262 1.13987 4.37209 1.61267C3.48218 2.08548 2.71104 2.75387 2.11663 3.5676C1.52222 4.38134 1.12002 5.31923 0.940259 6.31078C0.760501 7.30233 0.807864 8.32173 1.07879 9.29234C1.34971 10.2629 1.83714 11.1595 2.50444 11.9146" stroke="var(--stroke-0, #475467)" stroke-width="1.66667" stroke-linecap="round" stroke-linejoin="round"/>
</svg>
