<svg preserveAspectRatio="none" width="100%" height="100%" overflow="visible" style="display: block;" viewBox="0 0 16 15.7891" fill="none" xmlns="http://www.w3.org/2000/svg">
<g id="Group">
<path id="Vector" opacity="0" d="M16 0H0V15.7891H16V0Z" fill="var(--fill-0, black)"/>
<path id="Vector_2" d="M7.86908 2.82909C8.21091 2.82909 8.4945 2.54545 8.4945 2.19636V0.632726C8.4945 0.283636 8.21091 0 7.86908 0C7.52002 0 7.23636 0.283636 7.23636 0.632726V2.19636C7.23636 2.54545 7.52002 2.82909 7.86908 2.82909ZM11.4327 4.31999C11.68 4.56 12.08 4.56727 12.3272 4.31999L13.44 3.20727C13.68 2.96727 13.68 2.56 13.44 2.31273C13.2 2.07272 12.7927 2.07272 12.5527 2.31273L11.4327 3.43273C11.1927 3.67272 11.1927 4.08 11.4327 4.31999ZM12.9091 7.8909C12.9091 8.23273 13.2 8.51632 13.5418 8.51632H15.1054C15.4473 8.51632 15.7309 8.23273 15.7309 7.8909C15.7309 7.54907 15.4473 7.25817 15.1054 7.25817H13.5418C13.2 7.25817 12.9091 7.54907 12.9091 7.8909ZM11.4327 11.4618C11.1927 11.7091 11.1927 12.1091 11.4327 12.3491L12.5527 13.4763C12.7927 13.7164 13.2 13.7018 13.44 13.469C13.68 13.2218 13.68 12.8218 13.44 12.5818L12.32 11.4618C12.08 11.2218 11.68 11.2291 11.4327 11.4618ZM7.86908 12.9527C7.52002 12.9527 7.23636 13.2363 7.23636 13.5782V15.1491C7.23636 15.4909 7.52002 15.7745 7.86908 15.7745C8.21091 15.7745 8.4945 15.4909 8.4945 15.1491V13.5782C8.4945 13.2363 8.21091 12.9527 7.86908 12.9527ZM4.29817 11.4618C4.0509 11.2291 3.64363 11.2218 3.40363 11.4618L2.29091 12.5746C2.05091 12.8145 2.05091 13.2145 2.28364 13.4618C2.52363 13.6946 2.93818 13.7091 3.17818 13.469L4.29091 12.3491C4.5309 12.1091 4.5309 11.7091 4.29817 11.4618ZM2.82181 7.8909C2.82181 7.54907 2.53091 7.25817 2.18909 7.25817H0.625454C0.283636 7.25817 0 7.54907 0 7.8909C0 8.23273 0.283636 8.51632 0.625454 8.51632H2.18909C2.53091 8.51632 2.82181 8.23273 2.82181 7.8909ZM4.29091 4.31999C4.5309 4.08727 4.5309 3.66545 4.29817 3.43273L3.18545 2.31273C2.95272 2.08 2.53818 2.07272 2.29818 2.31273C2.05818 2.56 2.05818 2.96727 2.29091 3.2L3.40363 4.31999C3.64363 4.56 4.04363 4.56 4.29091 4.31999Z" fill="var(--fill-0, #027A48)"/>
<path id="Vector_3" d="M7.86909 11.5927C9.91269 11.5927 11.5709 9.9345 11.5709 7.8909C11.5709 5.84727 9.91269 4.18181 7.86909 4.18181C5.82546 4.18181 4.16001 5.84727 4.16001 7.8909C4.16001 9.9345 5.82546 11.5927 7.86909 11.5927ZM7.86909 10.4872C6.42909 10.4872 5.26546 9.3309 5.26546 7.8909C5.26546 6.4509 6.42909 5.28727 7.86909 5.28727C9.30909 5.28727 10.4654 6.4509 10.4654 7.8909C10.4654 9.3309 9.30909 10.4872 7.86909 10.4872Z" fill="var(--fill-0, #027A48)"/>
</g>
</svg>
